<?xml version="1.0" standalone="no"?>
<!DOCTYPE svg PUBLIC "-//W3C//DTD SVG 1.1//EN" "http://www.w3.org/Graphics/SVG/1.1/DTD/svg11.dtd">
<svg xmlns="http://www.w3.org/2000/svg" id="Layer_1" data-name="Layer 1" viewBox="0 0 16 16" width="16" height="16"><defs><style>.cls-1{fill:#fff;}.cls-1,.cls-2,.cls-3,.cls-4{fill-rule:evenodd;}.cls-2{fill:#fdbb16;}.cls-3{fill:#faad32;}.cls-4{fill:#0d7ca5;}</style></defs><title>ituniver-16-vector</title><path class="cls-1" d="M11.63,10.19a4.23,4.23,0,1,0-3.58,2,4.32,4.32,0,0,0,2-.5,8.89,8.89,0,0,0,3.16.43A2.8,2.8,0,0,1,11.63,10.19Z"/><path class="cls-2" d="M15.37,9.55l-1,.12a6.17,6.17,0,0,1-.63,1.53l.67.85a.72.72,0,0,1,0,1l-1.23,1.23a.72.72,0,0,1-1,.05l-.86-.69a6.83,6.83,0,0,1-1.56.64l-.13,1.11a.73.73,0,0,1-.73.64H7.11a.73.73,0,0,1-.73-.64l-.13-1.15a7.68,7.68,0,0,1-1.45-.61l-.89.7a.74.74,0,0,1-1-.05L1.7,13a.74.74,0,0,1-.05-1l.71-.9a6.92,6.92,0,0,1-.59-1.4L.65,9.62A.74.74,0,0,1,0,8.89V7.17a.73.73,0,0,1,.65-.72l1.07-.12A5.76,5.76,0,0,1,2.33,4.8L1.66,4a.74.74,0,0,1,.06-1L3,1.74a.72.72,0,0,1,1-.05l.8.64a5.78,5.78,0,0,1,1.62-.69l.12-1A.74.74,0,0,1,7.19,0H8.9a.74.74,0,0,1,.73.65l.12,1a6,6,0,0,1,1.59.66l.76-.61a.73.73,0,0,1,1,.05L14.3,3a.73.73,0,0,1,0,1l-.62.79a6.34,6.34,0,0,1,.6,1.51l1,.11a.74.74,0,0,1,.65.73V8.81A.71.71,0,0,1,15.37,9.55Zm-3.74.64a4.23,4.23,0,1,0-3.58,2,4.32,4.32,0,0,0,2-.5,8.89,8.89,0,0,0,3.16.43A2.8,2.8,0,0,1,11.63,10.19Z"/><path class="cls-3" d="M8.47,1.44A6.43,6.43,0,0,0,2.13,8a6.45,6.45,0,0,0,6.1,6.52H8.05a6.54,6.54,0,0,1,0-13.08,6.06,6.06,0,0,1,.85.05C8.76,1.45,8.61,1.44,8.47,1.44Z"/><path class="cls-4" d="M6.22,7.35l-.08.08V10l.08.08H7L7.06,10V7.43L7,7.35Zm3.93-1.29H7.68a.12.12,0,0,0-.11.1v.67s0,.07.08.08h.82v3l.12.09h.7L9.38,10V7l0,0h.81l0-.06V6.14ZM6.59,6a.5.5,0,0,0,0,1,.5.5,0,0,0,0-1Z"/></svg>